Coordinates
version=1
nRows=19
nColumns=24
inDegrees=yes

Units are S.I. units (second, meters, Newtons, ...)
Angles are in degrees.

endheader
time	pelvis_tilt	pelvis_list	pelvis_rotation	pelvis_tx	pelvis_ty	pelvis_tz	hip_flexion_r	hip_adduction_r	hip_rotation_r	knee_angle_r	ankle_angle_r	subtalar_angle_r	mtp_angle_r	hip_flexion_l	hip_adduction_l	hip_rotation_l	knee_angle_l	ankle_angle_l	subtalar_angle_l	mtp_angle_l	lumbar_extension	lumbar_bending	lumbar_rotation
      1.33733333	      0.30185680	      8.73992025	     -5.22986297	      0.23186072	      1.00598405	      0.31385766	     17.51460880	    -11.76292416	     -1.15949046	    -73.42479491	    -11.14728074	    -17.00093590	      3.28421185	      7.83166390	     13.77945946	      3.29839759	    -10.96388242	      1.78801301	    -19.61405808	     -2.52069605	    -11.78002531	     -4.25669718	     -0.54272907
      1.34150000	      0.28625763	      8.55375728	     -5.18910733	      0.23682802	      1.00692607	      0.31367595	     18.10145029	    -11.49648516	     -1.19679836	    -73.21072879	    -10.53019827	    -17.05745258	      2.04716844	      7.23900710	     13.62509361	      3.57154247	    -10.43364320	      1.71661048	    -19.77846376	     -2.66674771	    -11.76066699	     -3.96363090	     -0.87114407
      1.34566667	      0.30321642	      8.35454953	     -5.20717456	      0.24176295	      1.00785579	      0.31361181	     18.65644937	    -11.19021278	     -1.17136088	    -72.94780802	     -9.90456931	    -17.07982438	      1.98349789	      6.65776175	     13.43442058	      3.59807044	     -9.98261752	      1.82307223	    -19.62916679	     -2.67210828	    -11.79840416	     -3.68326576	     -1.06872079
      1.34983333	      0.27935706	      8.16008046	     -5.18566638	      0.24667670	      1.00868634	      0.31348901	     19.23448318	    -10.89344019	     -1.18274011	    -72.63172282	     -9.30655829	    -17.18024080	      1.94173180	      6.12201940	     13.25135961	      3.68900753	     -9.53839216	      1.86414571	    -19.53836405	     -2.67657991	    -11.80354517	     -3.39880598	     -1.22790183
      1.35400000	      0.27490548	      7.95711307	     -5.15570344	      0.25160757	      1.00952855	      0.31336911	     19.76597083	    -10.59363254	     -1.21121935	    -72.24868077	     -8.73517759	    -17.22798077	      1.88647093	      5.55212156	     13.05889460	      3.80481350	     -9.07193900	      1.90899197	    -19.46331403	     -2.68225329	    -11.82249205	     -3.10062819	     -1.46073209
      1.35816667	      0.26653941	      7.75485041	     -5.11456151	      0.25657060	      1.01032734	      0.31323783	     20.27865760	    -10.30053159	     -1.26138684	    -71.80804913	     -8.16536165	    -17.30755108	      1.84665506	      4.98970906	     12.86548755	      3.89150332	     -8.61447688	      1.94508212	    -19.38249475	     -2.68643216	    -11.80924224	     -2.81936748	     -1.63740705
      1.36233333	      0.25091196	      7.55257555	     -5.07272965	      0.26147776	      1.01106436	      0.31310179	     20.79296919	    -10.00130597	     -1.29641479	    -71.32143350	     -7.62894103	    -17.32021511	      1.78261147	      4.43591752	     12.67142788	      4.02834897	     -8.15414398	      1.99550866	    -19.30110744	     -2.69200766	    -11.83451765	     -2.51639546	     -1.91118856
      1.36650000	      0.25793948	      7.37393443	     -5.02247050	      0.26642688	      1.01176891	      0.31295054	     21.26591743	     -9.74495969	     -1.35222739	    -70.78615402	     -7.08647070	    -17.32197151	      1.68851674	      3.85479374	     12.50238698	      4.14041309	     -7.68355336	      2.04795700	    -19.22508827	     -2.70002871	    -11.83920288	     -2.23737342	     -2.21239374
      1.37066667	      0.23710693	      7.18457432	     -4.96736279	      0.27135506	      1.01240494	      0.31283457	     21.75074224	     -9.46200506	     -1.40165456	    -70.19831173	     -6.53536386	    -17.37725870	      1.63933525	      3.32052578	     12.31356134	      4.22080708	     -7.24620795	      2.07629372	    -19.11728953	     -2.70427445	    -11.84097564	     -1.97750087	     -2.36118991
      1.37483333	      0.26259384	      7.00987239	     -4.91649644	      0.27629637	      1.01303744	      0.31268557	     22.17487699	     -9.21579683	     -1.46075097	    -69.56363865	     -6.00745895	    -17.33624494	      1.53464578	      2.72366735	     12.14702698	      4.33505024	     -6.78039035	      2.14515821	    -19.01061682	     -2.71132691	    -11.87962412	     -1.69830548	     -2.67571819
      1.37900000	      0.26007293	      6.82909325	     -4.84904433	      0.28121949	      1.01359353	      0.31255608	     22.60702335	     -8.95409975	     -1.52369841	    -68.87506800	     -5.46244402	    -17.34185703	      1.39395866	      2.17283419	     11.96620213	      4.42888807	     -6.34575534	      2.18616108	    -18.88834265	     -2.72025633	    -11.89590208	     -1.44042402	     -2.93561801
      1.38316667	      0.24189807	      6.64615148	     -4.79263314	      0.28614385	      1.01409406	      0.31245500	     23.04148998	     -8.68099324	     -1.56878287	    -68.12931704	     -4.95181460	    -17.32317780	      1.33898320	      1.64678493	     11.77795766	      4.49841626	     -5.92328747	      2.23421150	    -18.76730822	     -2.72251304	    -11.89380691	     -1.19344239	     -3.06457555
      1.38733333	      0.27448125	      6.47829224	     -4.73251042	      0.29108811	      1.01458256	      0.31232281	     23.40837065	     -8.44530555	     -1.62825909	    -67.34728909	     -4.44132693	    -17.25741512	      1.24260717	      1.05453948	     11.61118942	      4.59170201	     -5.47679331	      2.31101578	    -18.62600028	     -2.72427190	    -11.94923448	     -0.92322103	     -3.33289231
      1.39150000	      0.24725694	      6.30316591	     -4.66053279	      0.29601151	      1.01496522	      0.31222353	     23.81783772	     -8.18578780	     -1.68149772	    -66.50485177	     -3.93248666	    -17.22492553	      1.19305334	      0.55112542	     11.42644779	      4.65978139	     -5.07786583	      2.35258218	    -18.49573643	     -2.72446438	    -11.93810681	     -0.68934779	     -3.47754893
      1.39566667	      0.28933316	      6.15888111	     -4.60008351	      0.30095426	      1.01534444	      0.31210490	     24.14968438	     -7.97975245	     -1.73172683	    -65.63575717	     -3.43936894	    -17.11686667	      1.11033419	     -0.04322009	     11.28139358	      4.74950218	     -4.63885921	      2.43491169	    -18.34735826	     -2.72288507	    -12.00359795	     -0.44713873	     -3.74872369
      1.39983333	      0.29872230	      6.00870414	     -4.52828952	      0.30589524	      1.01564850	      0.31199451	     24.49326304	     -7.76121109	     -1.78060410	    -64.70930082	     -2.96130684	    -17.03556007	      1.02347892	     -0.58884246	     11.12445553	      4.83412793	     -4.22931686	      2.49716194	    -18.20577527	     -2.72012904	    -12.03332349	     -0.22435891	     -3.97169199
      1.40400000	      0.31951098	      5.85448241	     -4.45669810	      0.31084129	      1.01592856	      0.31189724	     24.80470411	     -7.54120888	     -1.83199256	    -63.72956165	     -2.51219409	    -16.94212795	      0.94892841	     -1.14471820	     10.96164420	      4.91400943	     -3.82308259	      2.56619291	    -18.06344044	     -2.71579021	    -12.07546445	      0.00505940	     -4.16918577
      1.40816667	      0.33347599	      5.73081040	     -4.38338641	      0.31578263	      1.01611409	      0.31180173	     25.11891555	     -7.35620963	     -1.87162681	    -62.72183618	     -2.07030757	    -16.83202311	      0.88120573	     -1.68527923	     10.82930293	      4.99570867	     -3.42612396	      2.63297981	    -17.92210071	     -2.71037500	    -12.10891350	      0.19795630	     -4.36927983
      1.41233333	      0.37692210	      5.59540126	     -4.31137075	      0.32073843	      1.01629813	      0.31171106	     25.37652525	     -7.16458860	     -1.91626910	    -61.65711972	     -1.65777694	    -16.72014189	      0.81337295	     -2.25924056	     10.68524085	      5.08059470	     -3.02934694	      2.70591143	    -17.77667245	     -2.70292504	    -12.17952729	      0.40133800	     -4.57618875
